<svg width="128" height="128" viewBox="0 0 128 128" fill="none" xmlns="http://www.w3.org/2000/svg">
<mask id="mask0_40_399" style="mask-type:luminance" maskUnits="userSpaceOnUse" x="8" y="8" width="112" height="112">
<path d="M104 8H24C15.1634 8 8 15.1634 8 24V104C8 112.837 15.1634 120 24 120H104C112.837 120 120 112.837 120 104V24C120 15.1634 112.837 8 104 8Z" fill="white"/>
</mask>
<g mask="url(#mask0_40_399)">
<path d="M104 8H24C15.1634 8 8 15.1634 8 24V104C8 112.837 15.1634 120 24 120H104C112.837 120 120 112.837 120 104V24C120 15.1634 112.837 8 104 8Z" fill="black"/>
</g>
<g opacity="0.9">
<mask id="mask1_40_399" style="mask-type:luminance" maskUnits="userSpaceOnUse" x="34" y="22" width="60" height="84">
<path d="M93.0697 22H34.75V105.875H93.0697V22Z" fill="white"/>
</mask>
<g mask="url(#mask1_40_399)">
<path d="M93.0626 22H64.3802V22.0109C64.223 22.0084 64.0678 22 63.9102 22C60.0046 21.9714 56.1341 22.736 52.5339 24.2474C45.5453 27.1638 39.9756 32.6918 37.0139 39.6513C35.4921 43.2208 34.7217 47.0646 34.7503 50.9438C34.7214 54.8229 35.4919 58.6666 37.0139 62.2359C39.2552 67.4969 43.0041 71.9793 47.7895 75.1199C52.5749 78.2605 58.1833 79.9192 63.9102 79.8876C67.8156 79.9164 71.686 79.1516 75.286 77.6398C82.2744 74.7236 87.8438 69.1955 90.805 62.2359C92.327 58.6665 93.0979 54.823 93.07 50.9438C93.098 47.0646 92.3274 43.221 90.8059 39.6513C89.83 37.3934 88.5735 35.2671 87.0661 33.3222H93.0626V22ZM70.8458 34.6627C75.1241 36.4365 78.5275 39.8253 80.3153 44.0917C81.2252 46.2621 81.6937 48.5913 81.6937 50.9441C81.6937 53.2968 81.2252 55.6261 80.3153 57.7964C79.1778 60.4657 77.4025 62.8161 75.1448 64.6422C72.887 66.4683 70.2155 67.7144 67.3639 68.2716C64.5122 68.8288 61.5672 68.6802 58.7864 67.8386C56.0056 66.9971 53.4737 65.4883 51.4119 63.4442C49.7841 61.8198 48.4764 59.9047 47.5569 57.7984C46.6129 55.6368 46.1256 53.3041 46.1256 50.946C46.1256 48.588 46.6129 46.2553 47.5569 44.0937C48.4772 41.9877 49.7848 40.0725 51.4119 38.4474C53.039 36.8324 54.9645 35.5479 57.0818 34.6652C59.26 33.7492 61.6015 33.2829 63.965 33.2946C64.1054 33.2946 64.2408 33.3118 64.3802 33.3148V33.3251H64.5952C66.7437 33.383 68.8629 33.8373 70.8458 34.6652" fill="white"/>
<path d="M81.5455 79.7783C81.3301 81.1374 80.9514 82.4657 80.4176 83.7343C79.277 86.4091 77.4975 88.7643 75.2346 90.594C72.9717 92.4238 70.2943 93.6724 67.4364 94.2306C64.5785 94.7889 61.6271 94.6398 58.8403 93.7965C56.0534 92.9532 53.5159 91.4413 51.4495 89.3929C49.8186 87.7645 48.5083 85.8451 47.5866 83.7343C47.0331 82.4693 46.6398 81.1404 46.4157 79.7783H34.8882C35.1536 82.6742 35.8729 85.5105 37.0198 88.1836C39.2661 93.4564 43.0233 97.9489 47.8193 101.097C52.6153 104.244 58.2363 105.907 63.9759 105.875C67.8901 105.904 71.7691 105.136 75.3769 103.621C82.3811 100.698 87.9632 95.1574 90.931 88.1821C92.0772 85.5088 92.7965 82.6726 93.0626 79.7769L81.5455 79.7783Z" fill="white"/>
</g>
</g>
</svg>
